solid jetbot_wheel
  facet normal 0 0 1
    outer loop
      vertex -0.020 -0.020 0.015
      vertex  0.020 -0.020 0.015
      vertex  0.020  0.020 0.015
    endloop
  endfacet
  facet normal 0 0 1
    outer loop
      vertex -0.020 -0.020 0.015
      vertex  0.020  0.020 0.015
      vertex -0.020  0.020 0.015
    endloop
  endfacet

  facet normal 0 0 -1
    outer loop
      vertex -0.020 -0.020 -0.015
      vertex  0.020  0.020 -0.015
      vertex  0.020 -0.020 -0.015
    endloop
  endfacet
  facet normal 0 0 -1
    outer loop
      vertex -0.020 -0.020 -0.015
      vertex -0.020  0.020 -0.015
      vertex  0.020  0.020 -0.015
    endloop
  endfacet

  facet normal 1 0 0
    outer loop
      vertex 0.020 -0.020 -0.015
      vertex 0.020  0.020 -0.015
      vertex 0.020  0.020  0.015
    endloop
  endfacet
  facet normal 1 0 0
    outer loop
      vertex 0.020 -0.020 -0.015
      vertex 0.020  0.020  0.015
      vertex 0.020 -0.020  0.015
    endloop
  endfacet

  facet normal -1 0 0
    outer loop
      vertex -0.020 -0.020 -0.015
      vertex -0.020  0.020  0.015
      vertex -0.020  0.020 -0.015
    endloop
  endfacet
  facet normal -1 0 0
    outer loop
      vertex -0.020 -0.020 -0.015
      vertex -0.020 -0.020  0.015
      vertex -0.020  0.020  0.015
    endloop
  endfacet
endsolid jetbot_wheel
